<svg width="2319" height="697" viewBox="0 0 2319 697" fill="none" xmlns="http://www.w3.org/2000/svg">
<path fill-rule="evenodd" clip-rule="evenodd" d="M2318.17 68C2312.6 29.5429 2279.5 0 2239.5 0C2207.66 0 2180.19 18.7165 2167.5 45.7472C2154.81 18.7165 2127.34 0 2095.5 0C2063.66 0 2036.19 18.7165 2023.5 45.7472C2010.81 18.7165 1983.34 0 1951.5 0C1919.66 0 1892.19 18.7165 1879.5 45.7473C1866.81 18.7165 1839.34 0 1807.5 0C1775.66 0 1748.19 18.7165 1735.5 45.7473C1722.81 18.7165 1695.34 0 1663.5 0C1631.66 0 1604.19 18.7165 1591.5 45.7473C1578.81 18.7165 1551.34 0 1519.5 0C1487.66 0 1460.19 18.7165 1447.5 45.7473C1434.81 18.7165 1407.34 0 1375.5 0C1343.66 0 1316.19 18.7165 1303.5 45.7473C1290.81 18.7165 1263.34 0 1231.5 0C1199.66 0 1172.19 18.7165 1159.5 45.7473C1146.81 18.7165 1119.34 0 1087.5 0C1055.66 0 1028.19 18.7165 1015.5 45.7473C1002.81 18.7165 975.339 0 943.5 0C911.661 0 884.194 18.7165 871.5 45.7473C858.806 18.7165 831.339 0 799.5 0C767.661 0 740.194 18.7165 727.5 45.7473C714.806 18.7165 687.339 0 655.5 0C623.661 0 596.194 18.7165 583.5 45.7473C570.806 18.7165 543.339 0 511.5 0C479.661 0 452.194 18.7165 439.5 45.7473C426.806 18.7165 399.339 0 367.5 0C335.661 0 308.194 18.7165 295.5 45.7473C282.806 18.7165 255.339 0 223.5 0C191.661 0 164.194 18.7165 151.5 45.7473C138.806 18.7165 111.339 0 79.5 0C39.4989 0 6.39786 29.5429 0.825661 68H0V79.5V697H2319V79.5V68H2318.17Z" fill="#D9D9D9"/>
</svg>
